<?xml version="1.0" encoding="UTF-8"?> <svg xmlns="http://www.w3.org/2000/svg" width="244.821" height="309.671" viewBox="0 0 244.821 309.671"><g transform="translate(99.069 143.189)"><path d="M60.233,68.662c-3.55,3.328-4.881,8.652-1.553,12.645A9.652,9.652,0,0,0,71.769,82.86c9.54-7.321-.444-20.632-10.649-17.97-1.775.444-1.331,3.106.444,3.328,2.884.222,6.212.222,8.652,2.44,2.662,2.218,2.662,5.99.444,8.652-5.546,6.877-15.086-3.328-9.318-9.318.666-1.109-.444-2.218-1.109-1.331Z" transform="translate(-56.766 -64.544)" fill="#ff6c00"></path></g><g transform="translate(200.588 156.403)"><path d="M11.64,72.94c1.331,4.659,2.662,9.54,4.215,14.2a1.541,1.541,0,0,0,2.44.887c3.771-2.662,7.543-5.1,11.314-7.987.666-.444.444-1.775-.222-2.218-4.215-2.884-9.983-7.1-15.308-7.321-1.331,0-2.218,2-.887,2.662,2.218,1.331,4.659,1.775,7.1,2.662a51.322,51.322,0,0,1,7.765,3.993,9.1,9.1,0,0,1,.222-2.44c-3.993,2.44-7.765,5.324-11.758,7.987.666.222,1.553.222,2.218.444-1.553-4.659-3.328-9.318-5.1-13.755-.666-.666-2.218-.222-2,.887Z" transform="translate(-11.619 -70.5)" fill="#ff6c00"></path></g><g transform="translate(225.94 171.225)"><path d="M1.484,89.869a95.049,95.049,0,0,0,16.639-9.54,1.755,1.755,0,0,0-2-2.884A107.62,107.62,0,0,0,.375,87.872c-.887.666-.222,2.662,1.109,2Z" transform="translate(0.029 -77.181)" fill="#ff6c00"></path></g><g transform="translate(8.606 181.594)"><path d="M110.247,101.478a102.217,102.217,0,0,0-4.881-18.413,1.754,1.754,0,0,0-3.328,1.109,98.267,98.267,0,0,0,5.99,17.748c.444,1.109,2.44.887,2.218-.444Z" transform="translate(-101.992 -81.855)" fill="#ff6c00"></path></g><g transform="translate(28.508 145.337)"><path d="M99.809,66.817l-.222-.222a3.55,3.55,0,0,0-5.1,0,3.759,3.759,0,0,0,0,5.1l.222.222a3.759,3.759,0,0,0,5.1,0c1.109-1.553,1.331-3.771,0-5.1Z" transform="translate(-93.487 -65.512)" fill="#ff6c00"></path></g><path d="M98.137,212.737S38.46,226.492,14.5,202.754l8.652-57.237c2.662-16.417,1.109-48.141,13.533-59.234a21.139,21.139,0,0,1,4.881-3.328C50.44,78.74,66.191,76.3,81.276,76.3c18.413,0,37.271,13.755,41.929,31.5l-19.745,46.366Z" transform="translate(89.383 92.971)" fill="#4da7f2"></path><g transform="translate(123.85 200.773)"><path d="M63.8,97.6s26.622,51.469,13.533,54.131c-43.7,9.1-68.995,16.417-68.995,16.417L6.119,185.008c.666,2.662,88.3.444,98.5-11.314,7.321-8.208,17.082-27.509-3.55-68.995L94.859,90.5Z" transform="translate(-6.119 -90.5)" fill="#b9d4ff"></path></g><path d="M141.676,89.742,75.121,115.476l-2-34.83L58.926,75.1s-20.632,55.906,5.1,66.333,54.8-8.874,54.8-8.874Z" transform="translate(-11.48 91.508)" fill="#b9d4ff"></path><path d="M117.061,77.9C93.766,85.221,80.012,93.873,47.4,107.628L64.261,145.12,93.1,135.8Z" transform="translate(21.564 94.92)" fill="#4da7f2"></path><path d="M6.387,97.08l16.86,39.045,38.158-6.877L35.671,85.1,5.5,97.08" transform="translate(171.15 103.693)" fill="#4da7f2"></path><g transform="translate(156.833 225.721)"><path d="M28.574,103.42c8.208-.444,16.195,0,24.182,0,.666,0,.666-.887,0-1.109a110.169,110.169,0,0,0-24.182.222.447.447,0,1,0,0,.887Z" transform="translate(-28.075 -101.745)" fill="#1a3066"></path></g><g transform="translate(179.216 181.916)"><path d="M37.116,82c-27.287,2.44-8.652,42.817-1.553,55.019.444.666,1.331,0,1.109-.666-6.877-12.424-25.734-49.916.666-53.687.222,0,.222-.666-.222-.666Z" transform="translate(-22.734 -82)" fill="#1a3066"></path></g><g transform="translate(110.789 204.746)"><path d="M63.134,92.533A238.2,238.2,0,0,0,56.7,133.8c0,.666.887.666,1.109.222,2-13.755,3.993-27.509,6.212-41.264a.476.476,0,0,0-.887-.222Z" transform="translate(-56.7 -92.291)" fill="#1a3066"></path></g><g transform="translate(124.218 80.442)"><path d="M82.513,86.265l1.331-17.3c4.437-1.331,6.877-7.1,5.1-11.536s-6.877-6.877-11.536-6.212c2.884-2,2.662-6.877.222-9.318-2.44-2.662-6.212-3.55-9.761-3.55-3.55-.222-7.1.222-10.649-.444-3.106-.666-6.212-2-9.318-1.553S41.693,40.342,43.468,43c-4.437-.666-9.318-1.331-13.533.887-3.993,2.218-5.99,8.43-2.662,11.314-2.218,1.109-2.884,4.437-1.553,6.655s3.993,3.328,6.434,3.55A21.455,21.455,0,0,0,39.7,64.3" transform="translate(-25.037 -36.26)" fill="#e3f2ff"></path></g><path d="M72.211,65.519,71.324,77.5s10.205,1.331,7.321,10.649-9.983,5.324-9.983,5.324-1.775,23.96-26.178,16.195c-19.523-5.99-18.192-31.281-15.751-52.8A14.334,14.334,0,0,1,43.815,44.443l14.642,2.884A17.342,17.342,0,0,1,72.211,65.519Z" transform="translate(108.84 53.836)" fill="#b9d4ff"></path><path d="M63.513,63.7,56.858,98.752a13.967,13.967,0,0,1-17.082,11.092h0A14.112,14.112,0,0,1,29.127,93.65l3.55-20.188Z" transform="translate(116.634 77.618)" fill="#b9d4ff"></path><g transform="translate(150.026 120.242)"><g transform="translate(0)"><path d="M44.039,75.5a2.746,2.746,0,0,1-.666.444,1.61,1.61,0,0,1-1.331-1.331,10.585,10.585,0,0,1,0-3.771,33.1,33.1,0,0,1,.444-4.659c.444-6.655.444-11.98.222-11.98s-.887,5.324-1.331,11.98c0,1.553-.222,3.106-.222,4.659,0,1.331-.222,2.884.222,3.993.222,1.109,1.553,2,2.218,1.553C44.039,76.163,44.039,75.5,44.039,75.5Z" transform="translate(-41.1 -54.2)" fill="#03327c"></path></g></g><g transform="translate(145.035 161.027)"><g transform="translate(0)"><path d="M34.2,72.619a10.319,10.319,0,0,0,2.884,2.218,18.818,18.818,0,0,0,17.3.222c2-1.109,3.106-2,3.106-2.219s-1.331.666-3.328,1.331a21.981,21.981,0,0,1-8.43,1.553,17.206,17.206,0,0,1-8.208-2C35.531,73.285,34.2,72.4,34.2,72.619Z" transform="translate(-34.2 -72.584)" fill="#03327c"></path></g></g><g transform="translate(149.61 143.536)"><g transform="translate(0)"><path d="M38.13,67.806c-.222,0,.222.887,1.331,1.553a5.694,5.694,0,0,0,8.43-2.662,3.469,3.469,0,0,0,.222-2c-.222,0-.222.666-.887,1.775a5.417,5.417,0,0,1-3.106,2.662,6.67,6.67,0,0,1-4.215-.222C38.8,68.25,38.352,67.584,38.13,67.806Z" transform="translate(-38.075 -64.7)" fill="#03327c"></path></g></g><g transform="translate(180.459 136.881)"><path d="M27.669,67.912c0,.222.666.444,1.553,0a2.589,2.589,0,0,0,1.331-1.331,1.414,1.414,0,0,0,0-1.331,1.822,1.822,0,0,0-1.109-1.109,1.789,1.789,0,0,0-2,.666l.887.444c.887-2,1.109-3.55.887-3.55s-1.109,1.109-2,3.106l.887.444s.222-.222.666,0c.444,0,.444.444.444.887s-.444.666-.666.887C28.334,67.69,27.669,67.69,27.669,67.912Z" transform="translate(-27.225 -61.7)" fill="#03327c"></path></g><g transform="translate(161.928 118.762)"><path d="M34.881,54.126c0,.222,1.109.222,2.44.666,1.331.222,2.218.887,2.44.666s-.444-1.331-2.218-1.775C35.991,53.238,34.881,53.9,34.881,54.126Z" transform="translate(-34.881 -53.533)" fill="#03327c"></path></g><g transform="translate(140.689 115.104)"><path d="M44.011,52.807c.222.222,1.331,0,2.884.222s2.662.666,2.884.222c.222-.222-.887-1.331-2.662-1.331C45.121,51.7,43.79,52.585,44.011,52.807Z" transform="translate(-43.987 -51.884)" fill="#03327c"></path></g><g transform="translate(133.604 91.597)"><path d="M73.21,81.026C66.333,74.37,64.337,63.278,62.562,53.96a23.747,23.747,0,0,1-22.407,2.884,29.82,29.82,0,0,1-7.987,6.877c-.887.444-1.775,1.109-2.884.887-1.109-.444-1.553-1.553-2-2.884a19.619,19.619,0,0,1,.444-11.314A14.439,14.439,0,0,1,35.274,42.2c3.771-1.553,8.208-.887,11.98.222a67.835,67.835,0,0,1,17.082,7.1c5.324,3.106,10.205,7.1,12.424,12.645s2.218,16.639-3.106,19.523" transform="translate(-26.669 -41.288)" fill="#e3f2ff"></path></g><g transform="translate(163.251 125.788)"><path d="M36.444,60.25c.222,0,.666-.887.666-1.775,0-1.109-.222-1.775-.444-1.775S36,57.587,36,58.475A2.867,2.867,0,0,0,36.444,60.25Z" transform="translate(-36 -56.7)" fill="#03327c"></path></g><g transform="translate(143.598 123.126)"><path d="M45.244,59.05c.222,0,.666-.887.666-1.775,0-1.109-.222-1.775-.444-1.775s-.666.887-.666,1.775S45.022,59.05,45.244,59.05Z" transform="translate(-44.8 -55.5)" fill="#03327c"></path></g><path d="M79.3,93.668s2.884-18.192,6.434-17.97,10.649,0,10.649,0,.666-17.3,2.44-14.42c2,2.662,2.662,25.956-4.881,37.049Z" transform="translate(-32.602 74.272)" fill="#b9d4ff"></path><path d="M84.569,125.5s-31.724,5.546-31.059,9.539a28.69,28.69,0,0,0,2.884,8.208l28.175-.666Z" transform="translate(40.597 152.92)" fill="#b9d4ff"></path><path d="M196.844,170.677l-.222-4.437L131.4,162.246,109.657,103.9,38,107.893,62.4,170.9Z" transform="translate(-38 126.601)" fill="#e3f2ff"></path><path d="M87.015,121.246a5.329,5.329,0,1,0,5.1-5.546A5.248,5.248,0,0,0,87.015,121.246Z" transform="translate(-47.253 140.979)" fill="#fff" opacity="0.41"></path><path d="M86.006,122.57a7.439,7.439,0,1,0,7.1-7.765A7.177,7.177,0,0,0,86.006,122.57Z" transform="translate(-48.249 139.877)" fill="#fff" opacity="0.41"></path><path d="M48.435,11.529s-14.42.666-14.864,16.195c0,0,.222,8.43,4.881,11.536s4.215,6.434,4.215,6.434h11.98s-.444-4.215,1.331-6.655c2-2.44,6.655-7.543,5.99-14.864C61.524,16.631,55.978,10.863,48.435,11.529Z" transform="translate(107.689 13.984)" fill="#ff6c00"></path><g transform="translate(149.628 61.827)"><path d="M36.818,29.491c4.215-.222,8.652.222,12.867,0,.666,0,.887-1.109.222-1.109-4.215-.887-8.874-.444-13.089,0a.558.558,0,0,0,0,1.109Z" transform="translate(-36.319 -27.869)" fill="#6338a1"></path></g><g transform="translate(151.371 65.599)"><path d="M37.25,31.191c1.775,0,3.55-.222,5.1-.222,1.775,0,3.55.222,5.1.222a.569.569,0,0,0,.222-1.109c-3.328-.887-7.321-.444-10.649,0-.444,0-.444,1.109.222,1.109Z" transform="translate(-36.719 -29.569)" fill="#6338a1"></path></g><g transform="translate(152.743 68.718)"><path d="M39.093,32.14c1.553,0,3.106.444,4.659.444a.7.7,0,0,0,.222-1.331,16.816,16.816,0,0,0-4.659-.222c-.887.222-.887,1.109-.222,1.109Z" transform="translate(-38.619 -30.975)" fill="#6338a1"></path></g><g transform="translate(150.784 45.424)"><path d="M40.495,34.507c.444-4.215-1.109-9.1-1.775-13.089a3.153,3.153,0,0,1-1.331.444c.666.887,1.553,3.771,3.106,3.771s2.218-2.884,2.44-4.215H41.6c.222,1.331.444,4.437,2.44,4.215,1.775-.222,2.884-2.884,3.55-4.215-.444-.222-.887-.222-1.331-.444-1.109,4.215-1.553,9.54-.444,13.755a.681.681,0,0,0,1.331-.222c-.222-4.437-.666-8.652.666-13.089.222-.887-1.109-1.331-1.331-.444-.222.444-1.331,3.328-2.44,2.884-.222,0-.666-2.662-.666-2.884-.222-.666-1.331-.666-1.331,0-.222.887-.444,3.106-1.553,2.44-.666-.444-1.109-1.775-1.553-2.44a.731.731,0,0,0-1.331.444c.666,4.215.887,9.1,2.44,13.089,0,.444.444.222.444,0Z" transform="translate(-37.389 -20.475)" fill="#6338a1"></path></g><g transform="translate(110.446 46.987)"><path d="M50.923,27.436c6.434-2,12.867-4.215,19.3-6.212.444-.222,1.775.444,1.331.666-6.434,2-12.867,4.215-19.3,6.212-.444.222-2-.444-1.331-.666Z" transform="translate(-50.76 -21.18)" fill="#ff6c00"></path></g><g transform="translate(118.444 33.943)"><path d="M50.6,15.522c3.993,0,8.208-.222,12.2-.222.444,0,1.775.666,1.109.666-3.993,0-8.208.222-12.2.222-.444,0-1.775-.666-1.109-.666Z" transform="translate(-50.418 -15.3)" fill="#ff6c00"></path></g><g transform="translate(123.471 16.472)"><path d="M61.346,19.349c-4.659-3.993-9.318-7.765-13.976-11.758-.444-.222,1.109-.222,1.553,0,4.659,3.993,9.318,7.765,13.976,11.758.222.444-1.331.222-1.553,0Z" transform="translate(-47.29 -7.425)" fill="#ff6c00"></path></g><g transform="translate(143.803 14.366)"><path d="M47.494,14.294c-1.109-.444-1.775-2-2.44-3.106a12.987,12.987,0,0,1-2.218-3.771.762.762,0,0,1,1.331-.666c1.109,1.109,1.553,2.44,2.44,3.771.666,1.109,1.553,2.218,1.553,3.55a.815.815,0,0,1-.666.222Z" transform="translate(-42.8 -6.476)" fill="#ff8015"></path></g><g transform="translate(156.593 0)"><path d="M39.227,19.3A131.492,131.492,0,0,1,38.784.666a.666.666,0,0,1,1.331,0A130.642,130.642,0,0,1,40.337,19.3c.222.887-.887.887-1.109,0Z" transform="translate(-38.6 0)" fill="#ff8015"></path></g><g transform="translate(164.798 14.223)"><path d="M33.389,13.929a44.726,44.726,0,0,1,3.993-7.1c.666-.887,1.775-.222,1.331.666a45.372,45.372,0,0,1-4.437,6.877c-.222.666-1.109.222-.887-.444Z" transform="translate(-33.354 -6.411)" fill="#ff8015"></path></g><g transform="translate(170.441 16.74)"><path d="M25.085,17.206C30.853,14.1,36.4,10.772,42.168,7.666c.666-.444,2,.444,1.331.887-5.768,3.106-11.314,6.434-17.082,9.539-.666.444-2.218-.444-1.331-.887Z" transform="translate(-24.818 -7.545)" fill="#ff6c00"></path></g><g transform="translate(174.874 33.011)"><path d="M27.8,16.256a12.378,12.378,0,0,0,6.877-1.331c.444-.222,2,.444,1.331.666a14.912,14.912,0,0,1-7.543,1.553c-.666,0-1.775-.887-.666-.887Z" transform="translate(-27.326 -14.88)" fill="#ff6c00"></path></g><g transform="translate(175.907 45.222)"><g transform="translate(0)"><path d="M19.325,20.419c8.652,1.775,17.526,3.771,26.178,5.546.887.222.666,1.109-.222.887-8.652-1.775-17.526-3.771-26.178-5.546-1.109-.222-.666-1.109.222-.887Z" transform="translate(-18.445 -20.384)" fill="#ff6c00"></path></g></g><g transform="translate(50.124 177.798)"><path d="M78.319,99.347c.222-2,.222-3.771,1.331-5.324,2.219-3.328,5.1-2.44,7.987-1.109,2.884,1.553,5.768,2.44,9.1.887,5.1-2.218,7.321-9.761,2.662-13.311-1.553-1.109-3.106.666-2.884,2.218.222,2,1.331,4.215-.444,5.99-2.44,2.44-5.1.444-7.543-.666a10.487,10.487,0,0,0-7.765-.444c-4.437,1.775-7.765,7.987-4.215,11.98a.965.965,0,0,0,1.775-.222Z" transform="translate(-75.05 -80.144)" fill="#ff6c00"></path></g><g transform="translate(118.914 190.697)"><path d="M48.549,95.812a101.936,101.936,0,0,0,17.97-6.434c2-.887.666-3.993-1.331-3.328a98.744,98.744,0,0,0-17.3,7.321c-1.109.887-.666,2.884.666,2.44Z" transform="translate(-47.255 -85.958)" fill="#ff6c00"></path></g><g transform="translate(89.803 204.545)"><path d="M61.138,94.64c1.331,4.659,2.662,9.54,4.215,14.2a1.541,1.541,0,0,0,2.44.887c3.771-2.662,7.543-5.1,11.314-7.987.666-.444.444-1.775-.222-2.218-4.215-2.884-9.983-7.1-15.308-7.321-1.331,0-2.218,2-.887,2.662,2.218,1.331,4.659,1.775,7.1,2.662a51.323,51.323,0,0,1,7.765,3.993,9.1,9.1,0,0,1,.222-2.44c-3.993,2.44-7.765,5.324-11.758,7.987.666.222,1.553.222,2.218.444-1.553-4.659-3.328-9.318-5.1-13.755-.444-.666-2.218-.222-2,.887Z" transform="translate(-61.119 -92.2)" fill="#ff6c00"></path></g><g transform="translate(97.422 250.855)"><path d="M57.192,116.681a109.6,109.6,0,0,0,19.079,0c2.218-.222,2-3.328-.222-3.55a103.886,103.886,0,0,0-18.635,1.109c-1.331.222-1.553,2.218-.222,2.44Z" transform="translate(-56.298 -113.074)" fill="#ff6c00"></path></g></svg> 