<svg width="418" height="311" fill="none" xmlns="http://www.w3.org/2000/svg"><path fill-rule="evenodd" clip-rule="evenodd" d="M57.57 289.927C1.792 263.569-6.271 210.368 3.606 180.305c9.877-30.063 85.8-25.708 101.979-36.519C121.764 132.976 235.82-3.127 307.109.055c71.288 3.182 123.952 82.97 106.613 157.485-17.338 74.514-100.7 106.698-174.466 134.118s-125.908 24.626-181.686-1.731z" fill="#F1F8F9"/><g opacity=".5"><path fill-rule="evenodd" clip-rule="evenodd" d="M214.048 51.54h102.83l5.016 135.932H214.048V51.54z" fill="#ECF0F1" fill-opacity=".01" stroke="#CFD9EC" stroke-width="1.25"/><path fill-rule="evenodd" clip-rule="evenodd" d="M214.048 96.955l104.397-3.446-104.397 3.446z" fill="#ECF0F1" fill-opacity=".01"/><path d="M214.048 96.955l104.397-3.446" stroke="#CFD9EC" stroke-width="1.25"/><path fill-rule="evenodd" clip-rule="evenodd" d="M214.048 140.491l106.278 3.132-106.278-3.132z" fill="#ECF0F1" fill-opacity=".01"/><path d="M214.048 140.491l106.278 3.132" stroke="#CFD9EC" stroke-width="1.25"/><path fill="#ECF0F1" fill-opacity=".01" stroke="#CFD9EC" stroke-width="1.25" d="M199 34h137.315v5.011H199z"/><path fill-rule="evenodd" clip-rule="evenodd" d="M267.5 52v135V52z" fill="#ECF0F1" fill-opacity=".01"/><path d="M267.5 52v135" stroke="#CFD9EC" stroke-width="1.25"/><path fill="#ECF0F1" fill-opacity=".01" stroke="#CFD9EC" stroke-width="1.25" d="M205.897 39.011h123.521v12.528H205.897z"/><path fill-rule="evenodd" clip-rule="evenodd" d="M24 261h38-38z" fill="#ECF0F1" fill-opacity=".01"/><path d="M24 261h38" stroke="#CFD9EC" stroke-width="1.25"/><path fill-rule="evenodd" clip-rule="evenodd" d="M243 261.5h151-151z" fill="#ECF0F1" fill-opacity=".01"/><path d="M243 261.5h151" stroke="#CFD9EC" stroke-width="1.25"/><path fill-rule="evenodd" clip-rule="evenodd" d="M70.5 261h30-30z" fill="#ECF0F1" fill-opacity=".01"/><path d="M70.5 261h30" stroke="#CFD9EC" stroke-width="1.25"/><path fill-rule="evenodd" clip-rule="evenodd" d="M141.5 261h75-75z" fill="#ECF0F1" fill-opacity=".01"/><path d="M141.5 261h75" stroke="#CFD9EC" stroke-width="1.25"/><path fill-rule="evenodd" clip-rule="evenodd" d="M199 200v-12.528V200z" fill="#ECF0F1" fill-opacity=".01"/><path d="M199.625 200v-12.528h-1.25V200h1.25zm-1.25-12.528V200h1.25v-12.528h-1.25z" fill="#E0EDFF"/><path fill-rule="evenodd" clip-rule="evenodd" d="M325 187.472h10.688V200H248" fill="#ECF0F1" fill-opacity=".01"/><path d="M325 187.472h10.688V200H248" stroke="#CFD9EC" stroke-width="1.25"/><path fill-rule="evenodd" clip-rule="evenodd" d="M329.5 77.5V99 77.5z" fill="#ECF0F1" fill-opacity=".01"/><path d="M329.5 77.5V99" stroke="#CFD9EC" stroke-width="1.25"/><path fill-rule="evenodd" clip-rule="evenodd" d="M365.785 96.015h26.961v10.023h-26.961V96.015zm0 10.023h-12.541v10.022h26.962v-10.022h-14.421zm1.254 10.022H394v10.023h-26.961V116.06z" fill="#ECF0F1" fill-opacity=".01"/><path d="M392.746 96.015h.625v-.625h-.625v.625zm-26.961 0v-.625h-.625v.625h.625zm26.961 10.023v.625h.625v-.625h-.625zm-12.54 0h.625v-.625h-.625v.625zm-26.962 0v-.625h-.625v.625h.625zm0 10.022h-.625v.625h.625v-.625zm26.962 0v.625h.625v-.625h-.625zm-14.421-10.022h-.625v.625h.625v-.625zM394 116.06h.625v-.625H394v.625zm-26.961 0v-.625h-.625v.625h.625zM394 126.083v.625h.625v-.625H394zm-26.961 0h-.625v.625h.625v-.625zm25.707-30.693h-26.961v1.25h26.961v-1.25zm.625 10.648V96.015h-1.25v10.023h1.25zm-13.165.625h12.54v-1.25h-12.54v1.25zm-.625-.625h1.25-1.25zm-13.796.625h14.421v-1.25h-14.421v1.25zm-.625-10.648v10.023h1.25V96.015h-1.25zm-11.916 10.648h12.541v-1.25h-12.541v1.25zm.625 9.397v-10.022h-1.25v10.022h1.25zm26.337-.625h-26.962v1.25h26.962v-1.25zm-.625-9.397v10.022h1.25v-10.022h-1.25zm-13.796.625h14.421v-1.25h-14.421v1.25zm-.625-.625h1.25-1.25zm28.84 9.397h-26.961v1.25H394v-1.25zm.625 10.648V116.06h-1.25v10.023h1.25zm-27.586.625H394v-1.25h-26.961v1.25zm-.625-10.648v10.023h1.25V116.06h-1.25z" fill="#CFD9EC"/><path fill-rule="evenodd" clip-rule="evenodd" d="M58.206 66.015H31.244v10.023h13v-.023h13.962v-10zm13 20v-10h-13v.023H44.244v10h13v-.023h13.962zm.46 10.023h12.54V86.015h-13v.023H57.244v9.977h14.421v.023zm0 10v-10H57.243v-.023h-12.54v10.023h26.961zm12.54 9.977v-9.977H57.244v10.022h14v-.045h12.962zm0 0v.045H71.244v9.978h26.962v-10.023h-14z" fill="#ECF0F1" fill-opacity=".01"/><path d="M31.244 66.015h-.625v-.625h.625v.625zm26.962 0v-.625h.625v.625h-.625zM31.244 76.038v.625h-.625v-.625h.625zm13-.023h-.625v-.625h.625v.625zm26.962 0v-.625h.625v.625h-.625zm-13 .023h.625v.625h-.625v-.625zm-13.962 10v.625h-.625v-.625h.625zm13-.023h-.625v-.625h.625v.625zm26.962 10.023h.625v.625h-.625v-.625zm0-10.023v-.625h.625v.625h-.625zm-13 .023h.625v.625h-.625v-.625zm.46 9.977v-.625h.624v.625h-.625zm-14.422.023v.625h-.625v-.625h.625zm-12.54-.023h-.625v-.625h.625v.625zm0 10.023v.625h-.625v-.625h.625zm12.54 0h-.625v-.625h.625v.625zm26.962 0v-.625h.625v.625h-.625zm-12.54 0h.624v.625h-.625v-.625zM57.243 116.06v.625h-.625v-.625h.625zm14-.045h-.625v-.625h.625v.625zm12.962.045h.625v.625h-.625v-.625zm-12.962 9.978v.625h-.625v-.625h.625zm26.962 0h.625v.625h-.625v-.625zm0-10.023v-.625h.625v.625h-.625zM31.244 65.39h26.962v1.25H31.244v-1.25zm-.625 10.648V66.015h1.25v10.023h-1.25zm13.625.625h-13v-1.25h13v1.25zm.625-.648v.023h-1.25v-.023h1.25zm13.337.625H44.244v-1.25h13.962v1.25zm.625-10.625v10h-1.25v-10h1.25zm13 10v10h-1.25v-10h1.25zm-13.625-.625h13v1.25h-13v-1.25zm-.625.648v-.023h1.25v.023h-1.25zm-13.337-.625h13.962v1.25H44.244v-1.25zm-.625 10.625v-10h1.25v10h-1.25zm13.625.625h-13v-1.25h13v1.25zm.625-.648v.023h-1.25v-.023h1.25zm13.337.625H57.244v-1.25h13.962v1.25zm13 10.023h-12.54v-1.25h12.54v1.25zm.625-10.648v10.023h-1.25V86.015h1.25zm-13.625-.625h13v1.25h-13v-1.25zm-.625.648v-.023h1.25v.023h-1.25zm-13.337-.625h13.962v1.25H57.244v-1.25zm-.625 10.602v-9.977h1.25v9.977h-1.25zm15.046.625h-14.42v-1.25h14.42v1.25zm-.625-.602v-.023h1.25v.023h-1.25zm0 10v-10h1.25v10h-1.25zm.625-9.375h-14.42v-1.25h14.42v1.25zm-15.046-.625v-.023h1.25v.023h-1.25zm.625.602h-12.54v-1.25h12.54v1.25zm-11.915-.625v10.023h-1.25V96.015h1.25zm-.625 9.398h12.54v1.25h-12.54v-1.25zm13.165.625h-1.25 1.25zm13.796.625h-14.42v-1.25h14.42v1.25zm11.916 9.352v-9.977h1.25v9.977h-1.25zm.625-9.352h-12.54v-1.25h12.54v1.25zm-13.166-.625h1.25-1.25zm-13.796-.625h14.421v1.25h-14.42v-1.25zm.625.625v10.022h-1.25v-10.022h1.25zm-.625 9.397h14v1.25h-14v-1.25zm13.375.625v-.045h1.25v.045h-1.25zm.625-.67h12.962v1.25H71.244v-1.25zm12.337.67v-.045h1.25v.045h-1.25zm-12.337-.625h12.962v1.25H71.244v-1.25zm-.625 10.603v-9.978h1.25v9.978h-1.25zm27.587.625H71.244v-1.25h26.962v1.25zm.625-10.648v10.023h-1.25v-10.023h1.25zm-14.625-.625h14v1.25h-14v-1.25z" fill="#CFD9EC"/><path fill-rule="evenodd" clip-rule="evenodd" d="M98.244 54.515h14-14z" fill="#ECF0F1" fill-opacity=".01"/><path d="M98.244 54.515h14" stroke="#E0EDFF" stroke-width="1.25"/></g><path fill-rule="evenodd" clip-rule="evenodd" d="M161.726 210.166c-2.441 8.279 11.396 21.021 18.74 46.479 1.102 3.819 12.226-.343 11.754-4.099-3.303-26.311-8.005-31.673-8.005-31.673s19.374 1.271 44.634-8.096c5.067-1.879 7.224-12.989 7.224-12.989s22.779-69.075-17.095-88.645c-1.788-5.907-3.137-18.8-3.137-18.8L194.25 77.62l-8.975 13.178s6.097 16.514 5.652 24.738c-.125 2.314 5.579-4.747 5.811-2.442 1.06 10.491 5.355 13.083 8.015 13.385 1.243.141 3.899-1.553 5.247-2.479 2.596-1.784 3.388-4.224 3.388-4.224s4.533 4.596 2.7 5.497c-40.655 19.983-9.286 58.476-12.815 65.328-19.342 6.646-40.272 15.241-41.547 19.565z" fill="url(#paint0_linear)"/><mask id="a" maskUnits="userSpaceOnUse" x="161" y="77" width="82" height="182"><path fill-rule="evenodd" clip-rule="evenodd" d="M161.726 210.166c-2.441 8.279 11.396 21.021 18.74 46.479 1.102 3.819 12.226-.343 11.754-4.099-3.303-26.311-8.005-31.673-8.005-31.673s19.374 1.271 44.634-8.096c5.067-1.879 7.224-12.989 7.224-12.989s22.779-69.075-17.095-88.645c-1.788-5.907-3.137-18.8-3.137-18.8L194.25 77.62l-8.975 13.178s6.097 16.514 5.652 24.738c-.125 2.314 5.579-4.747 5.811-2.442 1.06 10.491 5.355 13.083 8.015 13.385 1.243.141 3.899-1.553 5.247-2.479 2.596-1.784 3.388-4.224 3.388-4.224s4.533 4.596 2.7 5.497c-40.655 19.983-9.286 58.476-12.815 65.328-19.342 6.646-40.272 15.241-41.547 19.565z" fill="#fff"/></mask><g mask="url(#a)"><path opacity=".1" fill-rule="evenodd" clip-rule="evenodd" d="M219.041 111.091l-5.516 8.77 1.505 2.255 9.527-9.521-3.761-2.757-1.755 1.253z" fill="#000"/></g><path fill-rule="evenodd" clip-rule="evenodd" d="M170.677 221.614c.487 7.37 17.119 12.416 31.542 30.52 1.709 2.146 9.903-4.53 8.658-6.742-11.656-20.705-17.7-23.345-17.7-23.345s16.927-5.706 35.592-21.569c3.743-3.182 2.152-12.416 2.152-12.416s-29.936-2.17-30.831 4.283c-14.454 11.744-29.66 25.525-29.413 29.269z" fill="#fff"/><path fill-rule="evenodd" clip-rule="evenodd" d="M203.273 190.601c-19.342 6.645-40.272 15.241-41.547 19.565-2.511 8.511 12.188 21.742 19.344 48.658.848 3.191 11.821-.596 11.467-3.651-3.31-28.585-8.323-34.3-8.323-34.3s19.375 1.271 44.635-8.096c5.067-1.879 7.224-12.989 7.224-12.989s-29.271-16.039-32.8-9.187z" fill="#fff"/><mask id="b" maskUnits="userSpaceOnUse" x="161" y="188" width="76" height="73"><path fill-rule="evenodd" clip-rule="evenodd" d="M203.273 190.601c-19.342 6.645-40.272 15.241-41.547 19.565-2.511 8.511 12.188 21.742 19.344 48.658.848 3.191 11.821-.596 11.467-3.651-3.31-28.585-8.323-34.3-8.323-34.3s19.375 1.271 44.635-8.096c5.067-1.879 7.224-12.989 7.224-12.989s-29.271-16.039-32.8-9.187z" fill="#fff"/></mask><g mask="url(#b)"><path opacity=".1" fill-rule="evenodd" clip-rule="evenodd" d="M237.844 196.034c-11.541 4.042-11.662 11.025-23.316 14.784-11.654 3.758-20.164 4.305-23.818 5.512-3.653 1.207-6.138 3.759-6.518 4.51-.38.752-.38 2.256 0 4.761.38 2.506 7.062 31.165 7.521 32.825.459 1.659-2.472 9.487 2.257 2.506 4.728-6.982 8.54-10.518 8.775-18.793.234-8.275-22.186-6.565-7.773-16.538 14.414-9.973 41.503-7.766 46.884-10.524 5.38-2.757 2.709-11.191 2.005-14.533-.704-3.342 5.525-8.552-6.017-4.51z" fill="#000"/></g><path fill-rule="evenodd" clip-rule="evenodd" d="M153.126 176.47a.06.06 0 0 0-.048.037.062.062 0 0 0 .011.06c2.235-.491 7.412-1.927 15.03-6.26 7.781-4.425 17.516-14.003 32.44-17.174 1.94 5.971 4 12.504 4 12.504l-37.837 7.969-13.596 2.864z" fill="url(#paint1_linear)"/><path clip-rule="evenodd" d="M153.126 176.47a.06.06 0 0 0-.048.037.062.062 0 0 0 .011.06c2.235-.491 7.412-1.927 15.03-6.26 7.781-4.425 17.516-14.003 32.44-17.174 1.94 5.971 4 12.504 4 12.504l-37.837 7.969-13.596 2.864z" stroke="#fff" stroke-width="1.48" stroke-linecap="round" stroke-linejoin="round"/><path fill-rule="evenodd" clip-rule="evenodd" d="M235.073 203.562c.681-2.13 1-3.774 1-3.774s17.802-53.982-5.617-80.024c-9.047 5.096-12.535 4.608-14.368 5.509-40.655 19.983-9.286 58.476-12.815 65.328 23.373 3.377 31.8 13.1 31.8 12.961z" fill="url(#paint2_linear)"/><mask id="c" maskUnits="userSpaceOnUse" x="195" y="119" width="48" height="85"><path fill-rule="evenodd" clip-rule="evenodd" d="M235.073 203.562c.681-2.13 1-3.774 1-3.774s17.802-53.982-5.617-80.024c-9.047 5.096-12.535 4.608-14.368 5.509-40.655 19.983-9.286 58.476-12.815 65.328 23.373 3.377 31.8 13.1 31.8 12.961z" fill="#fff"/></mask><g mask="url(#c)"><path opacity=".2" fill-rule="evenodd" clip-rule="evenodd" d="M230.072 141.661l-7.27 23.303-8.023 7.266-14.541 4.26-2.006 3.508-3.259-2.005s16.296 4.51 25.322 3.007c9.025-1.503 11.282-6.515 13.037-11.276 1.755-4.76 1.755-33.325 1.755-33.325l-5.015 5.262z" fill="#000"/></g><path fill-rule="evenodd" clip-rule="evenodd" d="M157.657 177.691s35.45 2.296 63.939-4.404c5.837-2.73 9.903-14.679 12.17-25.08 2.642-12.123 1.668-24-7.069-25.074-9.552-1.174-14.56 11.478-15.693 18.13-1.369 8.03.791 20.489.791 20.489s-9.672-1.006-20.484 2.878c-11.845 4.255-20.871 9.231-26.679 8.856-4.33-.28-11.543.133-11.861 2.177-.279 1.796 4.886 2.028 4.886 2.028z" fill="url(#paint3_linear)"/><path fill-rule="evenodd" clip-rule="evenodd" d="M211.004 141.263c16.922-3.365 13.366 4.102 22.834 6.61 2.552-12.007 1.516-23.676-7.141-24.74-9.552-1.174-14.56 11.478-15.693 18.13z" fill="url(#paint4_linear)"/><path fill-rule="evenodd" clip-rule="evenodd" d="M74 184.563h107.426v-6.729H74v6.729zm36.533 2.161h33.571v-2.159h-33.571v2.159zm54.021-9.606l-33.492-1.455v2.159h33.571l-.079-.704zM125.447 286.7h3.743v-99.976h-3.743V286.7zm-34.075 2.626h71.725V286.7H91.372v2.626z" fill="#ECF0F1" fill-opacity=".01"/><path d="M74 184.563h-.625v.625H74v-.625zm107.426 0v.625h.625v-.625h-.625zm0-6.729h.625v-.625h-.625v.625zm-107.426 0v-.625h-.625v.625H74zm36.533 8.89h-.625v.625h.625v-.625zm33.571 0v.625h.625v-.625h-.625zm0-2.159h.625v-.625h-.625v.625zm-33.571 0v-.625h-.625v.625h.625zm54.021-7.447l.621-.069-.059-.532-.535-.023-.027.624zm-33.492-1.455l.027-.624-.652-.028v.652h.625zm0 2.159h-.625v.625h.625v-.625zm33.571 0v.625h.698l-.077-.694-.621.069zM125.447 286.7h-.625v.625h.625v-.625zm3.743 0v.625h.625v-.625h-.625zm0-99.976h.625v-.625h-.625v.625zm-3.743 0v-.625h-.625v.625h.625zM91.372 289.326h-.625v.625h.625v-.625zm71.725 0v.625h.625v-.625h-.625zm0-2.626h.625v-.625h-.625v.625zm-71.725 0v-.625h-.625v.625h.625zM74 185.188h107.426v-1.25H74v1.25zm108.051-.625v-6.729h-1.25v6.729h1.25zm-.625-7.354H74v1.25h107.426v-1.25zm-108.051.625v6.729h1.25v-6.729h-1.25zm37.158 9.515h33.571v-1.25h-33.571v1.25zm34.196-.625v-2.159h-1.25v2.159h1.25zm-.625-2.784h-33.571v1.25h33.571v-1.25zm-34.196.625v2.159h1.25v-2.159h-1.25zm54.673-8.071l-33.492-1.455-.054 1.249 33.492 1.455.054-1.249zm-34.144-.831v2.159h1.25v-2.159h-1.25zm.625 2.784h33.571v-1.25h-33.571v1.25zm34.192-.694l-.079-.704-1.242.138.078.704 1.243-.138zm-39.807 109.572h3.743v-1.25h-3.743v1.25zm4.368-.625v-99.976h-1.25V286.7h1.25zm-.625-100.601h-3.743v1.25h3.743v-1.25zm-4.368.625V286.7h1.25v-99.976h-1.25zm-33.45 103.227h71.725v-1.25H91.372v1.25zm72.35-.625V286.7h-1.25v2.626h1.25zm-.625-3.251H91.372v1.25h71.725v-1.25zm-72.35.625v2.626h1.25V286.7h-1.25z" fill="#CFD9EC"/><path fill-rule="evenodd" clip-rule="evenodd" d="M124.19 157.411h5V85.113h-5v72.298z" fill="gray"/><path fill-rule="evenodd" clip-rule="evenodd" d="M124.19 157.411h5V85.113h-5v72.298z" fill="url(#paint5_linear)"/><path fill-rule="evenodd" clip-rule="evenodd" d="M124.19 121.262l-13.657 56.572h20.529l-15.836-2.171 8.964-54.401z" fill="url(#paint6_linear)"/><path fill-rule="evenodd" clip-rule="evenodd" d="M237.962 196.602a.715.715 0 0 1 .715-.572l.001-.001a6.518 6.518 0 0 1 6.361 7.098c-.724 8.002-3.22 20.039-11.692 20.049-12.099.015-21.331.008-25.192.003a2.228 2.228 0 0 1-2.21-1.964v-.001a2.155 2.155 0 0 1 1.813-2.383c4.309-.675 14.385-2.558 20.646-6.055 6.434-3.593 9.003-13.643 9.558-16.174zm-17.708 83.215h5.255v-56.64h-5.255v56.64zm.061.007c0-.014 5.194-.013 5.194.052-.003 10.52 18.122 11.01 18.122 11.01h-41.499s18.205-1.025 18.183-11.062z" fill="#ECF0F1" fill-opacity=".01"/><path d="M237.962 196.602l.61.134.002-.009-.612-.125zm.715-.572l-.012.625.267.005.188-.189-.443-.441zm.001-.001l.012-.625h-.012v.625zm4.725 2.167l.466-.417-.466.417zm1.636 4.931l.623.057-.623-.057zm-11.692 20.049l.001.625-.001-.625zm-25.192.003l-.001.625.001-.625zm-2.21-1.964h-.625v.036l.005.037.62-.073zm0-.001l-.621.074.066.551h.555v-.625zm1.813-2.383l.095.618h.002l-.097-.618zm20.646-6.055l-.305-.545.305.545zm-8.15 67.041h-.625v.625h.625v-.625zm5.255 0v.625h.625v-.625h-.625zm0-56.64h.625v-.625h-.625v.625zm-5.255 0v-.625h-.625v.625h.625zm.061 56.647h-.625v.002l.625-.002zm5.194.052h.625-.625zm18.122 11.01v.625l.017-1.25-.017.625zm-41.499 0l-.035-.624.035 1.249v-.625zm36.442-94.159a.09.09 0 0 1 .091-.072l.025-1.25a1.34 1.34 0 0 0-1.34 1.072l1.224.25zm.546-.256l-.003.003-.007.006-.012.012a.565.565 0 0 1-.025.022c-.005.004-.021.017-.043.032-.011.007-.035.023-.068.04a.704.704 0 0 1-.082.035c-.02.006-.045.014-.077.021a1.033 1.033 0 0 1-.054.008c-.036.003-.071.004-.071-.621s-.036-.624-.071-.621l-.055.009a.645.645 0 0 0-.226.096c-.022.015-.038.028-.043.032l-.025.021-.013.012-.006.007-.004.003.885.883zm-.454.183a5.893 5.893 0 0 1 4.272 1.959l.931-.834a7.141 7.141 0 0 0-5.179-2.375l-.024 1.25zm4.272 1.959a5.883 5.883 0 0 1 1.479 4.458l1.245.113a7.136 7.136 0 0 0-1.793-5.405l-.931.834zm1.479 4.458c-.36 3.98-1.158 8.908-2.89 12.825-1.736 3.925-4.316 6.651-8.181 6.655l.002 1.25c4.607-.005 7.511-3.303 9.322-7.4 1.816-4.105 2.628-9.196 2.992-13.217l-1.245-.113zm-11.07 19.48c-12.099.015-21.331.008-25.191.003l-.002 1.25c3.861.005 13.095.012 25.194-.003l-.001-1.25zm-25.191.003a1.603 1.603 0 0 1-1.59-1.413l-1.241.147a2.852 2.852 0 0 0 2.829 2.516l.002-1.25zm-2.211-1.339l.625-.001v-.001-.001-.002-.006-.01l-.001-.024a.634.634 0 0 0-.277-.476.626.626 0 0 0-.347-.105v1.25a.626.626 0 0 1-.623-.58l-.001-.024-.001-.01v-.006-.002-.001-.001h.625zm.621-.075a1.529 1.529 0 0 1 1.287-1.691l-.19-1.236a2.781 2.781 0 0 0-2.339 3.075l1.242-.148zm1.289-1.691c4.3-.675 14.482-2.568 20.853-6.127l-.609-1.091c-6.151 3.435-16.121 5.306-20.438 5.983l.194 1.235zm20.853-6.127c3.391-1.893 5.712-5.45 7.247-8.769 1.542-3.336 2.335-6.529 2.617-7.817l-1.221-.268c-.272 1.243-1.041 4.34-2.531 7.56-1.496 3.237-3.677 6.502-6.721 8.203l.609 1.091zm-8.454 67.12h5.255v-1.25h-5.255v1.25zm5.88-.625v-56.64h-1.25v56.64h1.25zm-.625-57.265h-5.255v1.25h5.255v-1.25zm-5.88.625v56.64h1.25v-56.64h-1.25zm1.311 56.647c-.029.188-.181.44-.262.509a1.22 1.22 0 0 1-.153.08.522.522 0 0 1-.152.033l-.017.001h.03l.157-.002a282.476 282.476 0 0 1 2.366 0c.648.004 1.294.009 1.777.018a26.548 26.548 0 0 1 .707.024c.014.001.004.001-.017-.003a.584.584 0 0 1-.099-.029c-.022-.009-.086-.035-.156-.09a.626.626 0 0 1-.237-.489h1.25a.626.626 0 0 0-.521-.62.983.983 0 0 0-.104-.014 4.002 4.002 0 0 0-.195-.012c-.151-.007-.36-.012-.605-.016-.491-.01-1.143-.015-1.794-.019a285.022 285.022 0 0 0-2.382 0l-.173.002-.057.001-.039.003a.441.441 0 0 0-.057.007c-.01.002-.052.009-.102.027-.03.012-.107.051-.154.081-.08.068-.232.32-.261.508h1.25zm3.944.052c0 2.836 1.23 5 3.038 6.623 1.792 1.609 4.151 2.69 6.458 3.423 2.314.734 4.62 1.13 6.342 1.343.863.107 1.582.168 2.087.203.253.017.452.028.589.034l.158.007.042.001h.011l.004.001h.001l.017-.625.017-.625h-.01l-.036-.001-.146-.007a29.917 29.917 0 0 1-.561-.032 38.676 38.676 0 0 1-2.019-.196c-1.676-.208-3.901-.592-6.118-1.295-2.223-.705-4.395-1.719-6.001-3.161-1.589-1.427-2.623-3.269-2.623-5.693h-1.25zm18.747 10.385h-41.499v1.25h41.499v-1.25zm-41.499.625l.036.624h.004l.011-.001.042-.003.158-.011a40.758 40.758 0 0 0 2.685-.308c1.728-.256 4.041-.705 6.361-1.475 2.313-.769 4.676-1.871 6.468-3.457 1.808-1.6 3.049-3.706 3.043-6.432l-1.25.003c.005 2.292-1.021 4.077-2.621 5.493-1.614 1.428-3.799 2.464-6.034 3.207-2.229.74-4.466 1.175-6.15 1.425a40.964 40.964 0 0 1-2.595.298l-.146.01-.037.002-.008.001h-.002l.035.624z" fill="#CFD9EC"/><path fill-rule="evenodd" clip-rule="evenodd" d="M185.731 90.607c-1.826.47-5.398 1.435-6.141-.296-1.019-2.379-5.975-12.882.023-13.977 5.998-1.096-1.731-4.842 4.729-5.303 6.459-.461 1.845 4.438 6.401 4.15 4.557-.289 3.98-2.363 6.114-1.556 2.134.806-.519 3.343 3.287 3.343 3.807 0 7.671-4.093 9.458-.404 1.788 3.69-1.268 4.842.289 6.283 1.557 1.44 5.709 3.92 6.805 6.225 1.096 2.306 2.973 6.305 2.81 8.723-.389 5.767-2.604 15.449-2.604 15.449s-3.02-19.507-7.309-19.91c-1.812-.17-4.663 1.657-1.558 12.695 1.812 6.439 6.222 10.418 5.464 13.904-.758 3.486-7.427 7.853-10.01 7.009-6.604-2.159-6.646-13.709-6.646-13.709l-.029-2.326s2.938 2.631 4.518.009c1.581-2.621 2.014-15.805 2.014-15.805s-2.051-.435-2.853-2.038c-.801-1.602-1.693-5.493-3.752-6.003-4.312-1.066-8.241 2.824-11.01 3.537z" fill="url(#paint7_linear)"/><path fill-rule="evenodd" clip-rule="evenodd" d="M182.986 268.481l-1.845 13.423a4.416 4.416 0 0 0 .345 2.406l.469 1.047a1.4 1.4 0 0 0 2.505.108l10.142-18.263a3.461 3.461 0 0 0 .329-2.533l-.782-3.075a.902.902 0 0 0-1.74-.031l-.958 3.269a5.99 5.99 0 0 1-8.465 3.649zM204.72 269.507c-.026.825.18 1.642.595 2.356l.575.993a1.402 1.402 0 0 0 2.503-.155c2.1-4.938 7.999-19.103 9.554-22.758.345-.812-.81-1.586-2.232-2.515-1.422-.93-2.391-1.176-3.118-.981-.726.194.017 1.033.147 1.517.285 1.061.658 2.314.444 3.487a5.989 5.989 0 0 1-8.037 4.513l-.431 13.543z" fill="#000"/><defs><linearGradient id="paint0_linear" x1="194.361" y1="239.446" x2="230.752" y2="247.604" gradientUnits="userSpaceOnUse"><stop stop-color="#5C6C84"/><stop offset="1" stop-color="#2F3A4D"/></linearGradient><linearGradient id="paint1_linear" x1="173.971" y1="174.138" x2="184.988" y2="186.217" gradientUnits="userSpaceOnUse"><stop stop-color="#5C6C84"/><stop offset="1" stop-color="#2F3A4D"/></linearGradient><linearGradient id="paint2_linear" x1="183.428" y1="164.593" x2="237.803" y2="189.499" gradientUnits="userSpaceOnUse"><stop stop-color="#81C3F3"/><stop offset="1" stop-color="#4A90E2"/></linearGradient><linearGradient id="paint3_linear" x1="186.162" y1="172.368" x2="211.064" y2="190.958" gradientUnits="userSpaceOnUse"><stop stop-color="#5C6C84"/><stop offset="1" stop-color="#2F3A4D"/></linearGradient><linearGradient id="paint4_linear" x1="205.131" y1="136.332" x2="225.774" y2="152.495" gradientUnits="userSpaceOnUse"><stop stop-color="#81C3F3"/><stop offset="1" stop-color="#4A90E2"/></linearGradient><linearGradient id="paint5_linear" x1="126.219" y1="149.917" x2="128.573" y2="149.998" gradientUnits="userSpaceOnUse"><stop stop-color="#5C6C84"/><stop offset="1" stop-color="#2F3A4D"/></linearGradient><linearGradient id="paint6_linear" x1="118.865" y1="171.97" x2="128.232" y2="173.666" gradientUnits="userSpaceOnUse"><stop stop-color="#5C6C84"/><stop offset="1" stop-color="#2F3A4D"/></linearGradient><linearGradient id="paint7_linear" x1="164.221" y1="80.949" x2="187.569" y2="126.233" gradientUnits="userSpaceOnUse"><stop stop-color="#81E4F5"/><stop offset="1" stop-color="#2098B9"/></linearGradient></defs></svg>